<svg width="56" height="56" viewBox="0 0 56 56" fill="none" xmlns="http://www.w3.org/2000/svg">
<rect width="56" height="56" rx="10" fill="#F7EAED"/>
<path d="M40.4004 15.3734C40.7761 15.6781 40.9944 16.1401 40.9944 16.6275V23.9384C40.9944 25.2838 39.5373 26.3754 37.7451 26.3754C35.9529 26.3754 34.4958 25.2838 34.4958 23.9384C34.4958 22.593 35.9529 21.5014 37.7451 21.5014V18.6075L32.8712 19.5823V25.563C32.8712 26.9085 31.4141 28 29.6219 28C27.8297 28 26.3726 26.9085 26.3726 25.563C26.3726 24.2176 27.8297 23.1261 29.6219 23.1261V18.2521C29.6219 17.4753 30.1702 16.8102 30.9267 16.6579L39.0499 15.0333C39.5272 14.9368 40.0196 15.0637 40.4004 15.3684V15.3734ZM18.7925 30.437L19.3916 29.5333C19.6912 29.0814 20.1989 28.8123 20.7421 28.8123H23.8747C24.4179 28.8123 24.9256 29.0814 25.2252 29.5333L25.8293 30.437H27.1849C28.5303 30.437 29.6219 31.5286 29.6219 32.874V38.5603C29.6219 39.9057 28.5303 40.9972 27.1849 40.9972H17.437C16.0916 40.9972 15 39.9057 15 38.5603V32.874C15 31.5286 16.0916 30.437 17.437 30.437H18.7925ZM24.7479 35.7171C24.7479 34.3717 23.6563 33.2801 22.3109 33.2801C20.9655 33.2801 19.874 34.3717 19.874 35.7171C19.874 37.0625 20.9655 38.1541 22.3109 38.1541C23.6563 38.1541 24.7479 37.0625 24.7479 35.7171ZM39.3038 29.1322L37.3542 33.6863H40.1821C40.5223 33.6863 40.8218 33.8945 40.9437 34.2143C41.0655 34.5342 40.9741 34.8896 40.7203 35.1129L34.2217 40.7992C33.9373 41.048 33.516 41.0683 33.2113 40.8449C32.9067 40.6215 32.795 40.2154 32.9422 39.8701L34.8867 35.311H32.0588C31.7187 35.311 31.4191 35.1028 31.2973 34.7829C31.1754 34.4631 31.2668 34.1077 31.5207 33.8843L38.0193 28.198C38.3036 27.9492 38.725 27.9289 39.0296 28.1523C39.3342 28.3757 39.4459 28.7819 39.2987 29.1271L39.3038 29.1322ZM22.0926 26.1266C21.7626 26.4566 21.2295 26.4566 20.9249 26.1266L16.0103 21.0546C14.5888 19.5823 14.6649 17.1504 16.2642 15.7796C17.635 14.5865 19.7369 14.815 21.0061 16.1096L21.5138 16.6427L21.9962 16.1096C23.2654 14.815 25.3419 14.5865 26.7635 15.7796C28.3374 17.1504 28.4135 19.5823 26.992 21.0546L22.0977 26.1266H22.0926Z" fill="url(#paint0_linear_975_8847)"/>
<defs>
<linearGradient id="paint0_linear_975_8847" x1="22.2919" y1="15" x2="37.8293" y2="40.9985" gradientUnits="userSpaceOnUse">
<stop stop-color="#C44968"/>
<stop offset="1" stop-color="#B2294B"/>
</linearGradient>
</defs>
</svg>
