<svg width="56" height="56" viewBox="0 0 56 56" fill="none" xmlns="http://www.w3.org/2000/svg">
<rect width="56" height="56" rx="10" fill="#F7EAED"/>
<path d="M22.8571 15C23.8054 15 24.5714 15.7262 24.5714 16.625V18.25H31.4286V16.625C31.4286 15.7262 32.1946 15 33.1429 15C34.0911 15 34.8571 15.7262 34.8571 16.625V18.25H37.4286C38.8482 18.25 40 19.3418 40 20.6875V23.125H16V20.6875C16 19.3418 17.1518 18.25 18.5714 18.25H21.1429V16.625C21.1429 15.7262 21.9089 15 22.8571 15ZM16 24.75H40V38.5625C40 39.9082 38.8482 41 37.4286 41H18.5714C17.1518 41 16 39.9082 16 38.5625V24.75ZM33.625 30.4883C34.1286 30.0109 34.1286 29.2391 33.625 28.7668C33.1214 28.2945 32.3071 28.2895 31.8089 28.7668L26.7196 33.591L24.2018 31.2043C23.6982 30.727 22.8839 30.727 22.3857 31.2043C21.8875 31.6816 21.8821 32.4535 22.3857 32.9258L25.8143 36.1758C26.3179 36.6531 27.1321 36.6531 27.6304 36.1758L33.625 30.4883Z" fill="url(#paint0_linear_975_8743)"/>
<defs>
<linearGradient id="paint0_linear_975_8743" x1="22.7317" y1="15" x2="38.8277" y2="39.8642" gradientUnits="userSpaceOnUse">
<stop stop-color="#C44968"/>
<stop offset="1" stop-color="#B2294B"/>
</linearGradient>
</defs>
</svg>
