<svg width="56" height="56" viewBox="0 0 56 56" fill="none" xmlns="http://www.w3.org/2000/svg">
<rect width="56" height="56" rx="10" fill="#F7EAED"/>
<path d="M38.2857 15C37.4286 15 31.4286 16.625 31.4286 23.9375V29.625C31.4286 31.4176 32.9661 32.875 34.8571 32.875H36.5714V39.375C36.5714 40.2738 37.3375 41 38.2857 41C39.2339 41 40 40.2738 40 39.375V32.875V27.1875V16.625C40 15.7262 39.2339 15 38.2857 15ZM19.4286 15.8125C19.4286 15.3961 19.1018 15.0508 18.6625 15.0051C18.2232 14.9594 17.8321 15.2336 17.7357 15.6348L16.1125 22.5563C16.0375 22.8762 16 23.2012 16 23.5262C16 25.857 17.8804 27.7715 20.2857 27.9797V39.375C20.2857 40.2738 21.0518 41 22 41C22.9482 41 23.7143 40.2738 23.7143 39.375V27.9797C26.1196 27.7715 28 25.857 28 23.5262C28 23.2012 27.9625 22.8762 27.8875 22.5563L26.2643 15.6348C26.1679 15.2285 25.7661 14.9594 25.3321 15.0051C24.8982 15.0508 24.5714 15.3961 24.5714 15.8125V22.6273C24.5714 22.9016 24.3357 23.125 24.0464 23.125C23.7732 23.125 23.5482 22.927 23.5214 22.668L22.8518 15.7414C22.8143 15.3199 22.4446 15 22 15C21.5554 15 21.1857 15.3199 21.1482 15.7414L20.4839 22.668C20.4571 22.927 20.2321 23.125 19.9589 23.125C19.6696 23.125 19.4339 22.9016 19.4339 22.6273V15.8125H19.4286ZM22.0161 23.5312H22H21.9839L22 23.4957L22.0161 23.5312Z" fill="url(#paint0_linear_975_8853)"/>
<defs>
<linearGradient id="paint0_linear_975_8853" x1="22.7317" y1="15" x2="38.8277" y2="39.8642" gradientUnits="userSpaceOnUse">
<stop stop-color="#C44968"/>
<stop offset="1" stop-color="#B2294B"/>
</linearGradient>
</defs>
</svg>
