<svg width="22" height="22" viewBox="0 0 22 22" fill="none" xmlns="http://www.w3.org/2000/svg">
<rect width="22" height="22" rx="11" fill="#E0E0E0"/>
<path fill-rule="evenodd" clip-rule="evenodd" d="M7.97013 7.07268V6.32332C7.97013 5.76841 8.37438 5.29699 8.92081 5.21467L9.69896 5.09745C10.5615 4.96752 11.4385 4.96752 12.3011 5.09745L13.0792 5.21467C13.6256 5.29699 14.0299 5.76841 14.0299 6.32332V7.07269L15.1232 7.16132C15.9603 7.22918 16.6432 7.86218 16.7775 8.69479C17.0742 10.5349 17.0742 12.4111 16.7775 14.2512C16.6432 15.0838 15.9603 15.7168 15.1232 15.7847L13.9292 15.8815C11.9796 16.0395 10.0204 16.0395 8.07083 15.8815L6.8768 15.7847C6.03967 15.7168 5.35681 15.0838 5.22255 14.2512C4.92582 12.4111 4.92582 10.5349 5.22255 8.69479C5.35681 7.86218 6.03967 7.22918 6.8768 7.16132L7.97013 7.07268ZM9.84089 6.04772C10.6093 5.93196 11.3907 5.93196 12.1591 6.04772L12.9373 6.16494C13.0153 6.1767 13.0731 6.24405 13.0731 6.32332V7.00531C11.6922 6.92621 10.3079 6.92621 8.92693 7.00531V6.32332C8.92693 6.24405 8.98468 6.1767 9.06275 6.16495L9.84089 6.04772ZM8.14782 8.02231C10.0462 7.86842 11.9538 7.86842 13.8522 8.02231L15.0462 8.1191C15.4443 8.15138 15.7691 8.45242 15.833 8.8484C15.8727 9.09498 15.9068 9.34225 15.9353 9.59001C12.8241 11.1286 9.17595 11.1286 6.06468 9.59001C6.09316 9.34225 6.12728 9.09498 6.16704 8.8484C6.2309 8.45242 6.55565 8.15138 6.95378 8.1191L8.14782 8.02231ZM5.97927 10.6124C9.16823 12.069 12.8318 12.069 16.0207 10.6124C16.0815 11.7759 16.0189 12.9442 15.833 14.0976C15.7691 14.4936 15.4443 14.7946 15.0462 14.8269L13.8522 14.9237C11.9538 15.0776 10.0462 15.0776 8.14782 14.9237L6.95378 14.8269C6.55565 14.7946 6.2309 14.4936 6.16704 14.0976C5.98106 12.9442 5.91847 11.7759 5.97927 10.6124Z" fill="#1E1E1E"/>
</svg>
