<svg width="56" height="56" viewBox="0 0 56 56" fill="none" xmlns="http://www.w3.org/2000/svg">
<rect width="56" height="56" rx="10" fill="#F7EAED"/>
<path d="M22.9552 34.5434L21.3861 32.9744C20.9545 32.5428 20.8021 31.9182 20.9951 31.3393C21.1474 30.8874 21.3505 30.2984 21.5943 29.623H16.2219C15.7852 29.623 15.379 29.3894 15.1606 29.0086C14.9423 28.6277 14.9474 28.1606 15.1708 27.7848L17.8367 23.2909C18.4968 22.1789 19.6901 21.4984 20.9799 21.4984H25.1589C25.2808 21.2953 25.4027 21.1074 25.5246 20.9246C29.6833 14.7906 35.8783 14.5875 39.575 15.2679C40.164 15.3745 40.621 15.8366 40.7327 16.4256C41.4132 20.1274 41.205 26.3173 35.076 30.4761C34.8983 30.5979 34.7053 30.7198 34.5022 30.8417V35.0208C34.5022 36.3105 33.8218 37.5089 32.7097 38.164L28.2158 40.8298C27.8401 41.0533 27.3729 41.0583 26.9921 40.84C26.6112 40.6216 26.3776 40.2205 26.3776 39.7787V34.3353C25.6617 34.5841 25.0371 34.7872 24.5648 34.9395C23.9961 35.1223 23.3766 34.9649 22.9501 34.5434H22.9552ZM34.5022 23.5296C35.6244 23.5296 36.5334 22.6206 36.5334 21.4984C36.5334 20.3762 35.6244 19.4673 34.5022 19.4673C33.38 19.4673 32.4711 20.3762 32.4711 21.4984C32.4711 22.6206 33.38 23.5296 34.5022 23.5296Z" fill="url(#paint0_linear_975_8737)"/>
<defs>
<linearGradient id="paint0_linear_975_8737" x1="22.2927" y1="15" x2="37.8298" y2="41.0003" gradientUnits="userSpaceOnUse">
<stop stop-color="#C44968"/>
<stop offset="1" stop-color="#B2294B"/>
</linearGradient>
</defs>
</svg>
