<svg width="22" height="22" viewBox="0 0 22 22" fill="none" xmlns="http://www.w3.org/2000/svg">
<rect width="22" height="22" rx="11" fill="#E0E0E0"/>
<path fill-rule="evenodd" clip-rule="evenodd" d="M10.7471 5.03402C10.9056 4.98871 11.0728 4.98867 11.2314 5.03384C11.5684 5.12987 11.9085 5.21894 12.2497 5.3083C13.8521 5.72793 15.4795 6.15412 16.9274 7.33821L17.5941 7.8835C17.8646 8.10468 17.9999 8.43208 18 8.75953V13.3363C18 13.6072 17.7813 13.8267 17.5116 13.8267C17.2419 13.8267 17.0233 13.6072 17.0233 13.3363V10.1042L16.9172 10.1912C16.4155 10.6022 15.892 10.9214 15.3555 11.1806C15.3811 11.2401 15.3953 11.3058 15.3953 11.3748V14.1823C15.3953 14.9233 14.9426 15.5884 14.2551 15.8576L11.6504 16.8772C11.2321 17.0409 10.7679 17.0409 10.3496 16.8772L7.7449 15.8576C7.05735 15.5884 6.60465 14.9233 6.60465 14.1823V11.3748C6.60465 11.3041 6.61958 11.2368 6.64644 11.1761C6.10575 10.9154 5.57824 10.5943 5.07262 10.1808L4.40587 9.63555C3.86498 9.19319 3.86469 8.32599 4.40512 7.88318L5.08283 7.32788C6.52024 6.15011 8.13614 5.72648 9.72667 5.30949C10.0686 5.21984 10.4095 5.13049 10.7471 5.03402ZM17.0233 8.75992C17.0232 8.70101 16.9995 8.66212 16.9773 8.64393L16.3105 8.09864C14.907 7.12495 13.6563 6.69551 12.0678 6.27638C11.7186 6.18422 11.3594 6.08945 10.9896 5.9844C10.6181 6.09021 10.2576 6.18543 9.90716 6.27801C8.3314 6.69426 6.95838 7.05696 5.70037 8.08773L5.02265 8.64304C5.00039 8.66128 4.97672 8.70023 4.97674 8.75913C4.97677 8.81804 5.00047 8.85693 5.02271 8.87512L5.68946 9.42041C6.95813 10.458 8.34368 10.8235 9.93216 11.2427C10.2815 11.3348 10.6406 11.4296 11.0104 11.5347C11.3819 11.4288 11.7423 11.3336 12.0928 11.2411C13.6685 10.8248 15.0416 10.4621 16.2996 9.43132L16.9773 8.87601C16.9996 8.85779 17.0232 8.81872 17.0233 8.75992ZM12.2733 12.2096C12.9895 12.0218 13.7108 11.8327 14.4186 11.574V14.1823C14.4186 14.5192 14.2128 14.8215 13.9003 14.9438L11.2957 15.9634C11.1055 16.0379 10.8945 16.0379 10.7043 15.9634L8.09969 14.9438C7.78717 14.8215 7.5814 14.5192 7.5814 14.1823V11.5685C8.29688 11.8301 9.02613 12.0211 9.75027 12.2107C10.0915 12.3001 10.4316 12.3892 10.7686 12.4852C10.9272 12.5304 11.0944 12.5303 11.2529 12.485C11.5905 12.3886 11.9314 12.2992 12.2733 12.2096Z" fill="#1E1E1E"/>
</svg>
