<svg width="25" height="24" viewBox="0 0 25 24" fill="none" xmlns="http://www.w3.org/2000/svg">
<path fill-rule="evenodd" clip-rule="evenodd" d="M9.97438 2.51724C8.06299 2.51724 6.22989 3.27654 4.87834 4.62809C3.52678 5.97965 2.76749 7.81275 2.76749 9.72414C2.76749 10.6706 2.9539 11.6077 3.31608 12.4821C3.67826 13.3565 4.20911 14.151 4.87834 14.8202C5.54756 15.4894 6.34204 16.0203 7.21642 16.3824C8.0908 16.7446 9.02796 16.931 9.97438 16.931C10.9208 16.931 11.858 16.7446 12.7323 16.3824C13.6067 16.0203 14.4012 15.4894 15.0704 14.8202C15.7396 14.151 16.2705 13.3565 16.6327 12.4821C16.9949 11.6077 17.1813 10.6706 17.1813 9.72414C17.1813 7.81275 16.422 5.97965 15.0704 4.62809C13.7189 3.27654 11.8858 2.51724 9.97438 2.51724ZM3.80548 3.55524C5.44158 1.91915 7.6606 1 9.97438 1C12.2882 1 14.5072 1.91915 16.1433 3.55524C17.7794 5.19133 18.6985 7.41035 18.6985 9.72414C18.6985 10.8698 18.4729 12.0043 18.0344 13.0627C17.6931 13.8868 17.2279 14.6523 16.6563 15.3332L23.028 21.705C23.3243 22.0012 23.3243 22.4815 23.028 22.7778C22.7318 23.0741 22.2515 23.0741 21.9552 22.7778L15.5835 16.4061C14.9026 16.9777 14.1371 17.4428 13.313 17.7842C12.2545 18.2226 11.1201 18.4483 9.97438 18.4483C8.82871 18.4483 7.69426 18.2226 6.6358 17.7842C5.57734 17.3458 4.6156 16.7031 3.80548 15.893C2.99537 15.0829 2.35276 14.1212 1.91433 13.0627C1.4759 12.0043 1.25024 10.8698 1.25024 9.72414C1.25024 7.41035 2.16939 5.19133 3.80548 3.55524Z" fill="#878787" stroke="#878787" stroke-width="0.5" stroke-linecap="round" stroke-linejoin="round"/>
</svg>
